HIERARCHY
ROOT Hips
{
 OFFSET 0.000000 0.000000 0.000000
 CHANNELS 6 Xposition Yposition Zposition Yrotation Xrotation Zrotation
 JOINT Chest
 {
  OFFSET 0.000000 9.588913 -0.003946
  CHANNELS 3 Yrotation Xrotation Zrotation
  JOINT Chest2
  {
   OFFSET 0.000000 9.541882 0.008053
   CHANNELS 3 Yrotation Xrotation Zrotation
   JOINT Chest3
   {
    OFFSET 0.000000 9.501360 0.000000
    CHANNELS 3 Yrotation Xrotation Zrotation
    JOINT Chest4
    {
     OFFSET 0.000000 9.491660 0.000000
     CHANNELS 3 Yrotation Xrotation Zrotation
     JOINT Neck
     {
      OFFSET 0.000000 14.331917 0.000000
      CHANNELS 3 Yrotation Xrotation Zrotation
      JOINT Head
      {
       OFFSET 0.000000 8.884799 0.017034
       CHANNELS 3 Yrotation Xrotation Zrotation
       End Site
       {
        OFFSET 0.000000 16.896195 0.008993
       }
      }
     }
     JOINT RightCollar
     {
      OFFSET -2.923010 9.499495 0.000000
      CHANNELS 3 Yrotation Xrotation Zrotation
      JOINT RightShoulder
      {
       OFFSET -13.795216 0.000000 0.000000
       CHANNELS 3 Yrotation Xrotation Zrotation
       JOINT RightElbow
       {
        OFFSET -30.272209 0.000000 0.000000
        CHANNELS 3 Yrotation Xrotation Zrotation
        JOINT RightWrist
        {
         OFFSET -24.478199 0.000000 0.000000
         CHANNELS 3 Yrotation Xrotation Zrotation
         End Site
         {
          OFFSET -18.090752 0.000000 0.000000
         }
        }
       }
      }
     }
     JOINT LeftCollar
     {
      OFFSET 2.923010 9.499495 0.000000
      CHANNELS 3 Yrotation Xrotation Zrotation
      JOINT LeftShoulder
      {
       OFFSET 13.795216 0.000000 0.000000
       CHANNELS 3 Yrotation Xrotation Zrotation
       JOINT LeftElbow
       {
        OFFSET 30.272209 0.000000 0.000000
        CHANNELS 3 Yrotation Xrotation Zrotation
        JOINT LeftWrist
        {
         OFFSET 24.478199 0.000000 0.000000
         CHANNELS 3 Yrotation Xrotation Zrotation
         End Site
         {
          OFFSET 18.090752 0.000000 0.000000
         }
        }
       }
      }
     }
    }
   }
  }
 }
 JOINT RightHip
 {
  OFFSET -7.826875 0.019532 0.001973
  CHANNELS 3 Yrotation Xrotation Zrotation
  JOINT RightKnee
  {
   OFFSET 0.000000 -40.546152 -0.001885
   CHANNELS 3 Yrotation Xrotation Zrotation
   JOINT RightAnkle
   {
    OFFSET 0.000000 -39.417092 -0.003189
    CHANNELS 3 Yrotation Xrotation Zrotation
    JOINT RightToe
    {
     OFFSET 0.000000 -7.579396 17.243563
     CHANNELS 3 Yrotation Xrotation Zrotation
     End Site
     {
      OFFSET 0.000000 -1.500329 6.694466
     }
    }
   }
  }
 }
 JOINT LeftHip
 {
  OFFSET 7.826875 0.019532 0.001973
  CHANNELS 3 Yrotation Xrotation Zrotation
  JOINT LeftKnee
  {
   OFFSET 0.000000 -40.546152 -0.001885
   CHANNELS 3 Yrotation Xrotation Zrotation
   JOINT LeftAnkle
   {
    OFFSET 0.000000 -39.417092 -0.003189
    CHANNELS 3 Yrotation Xrotation Zrotation
    JOINT LeftToe
    {
     OFFSET 0.000000 -7.579396 17.243563
     CHANNELS 3 Yrotation Xrotation Zrotation
     End Site
     {
      OFFSET 0.000000 -1.500329 6.694466
     }
    }
   }
  }
 }
}
MOTION
Frames: 17
Frame Time: 0.008333
-2.169237 89.307367 8.919802 -49.508768 -6.095003 0.805208 1.320365 1.523924 -0.049523 0.771493 0.871337 0.022137 0.964447 1.089119 0.029505 0.771493 0.871338 0.022137 -7.906506 8.561927 -4.097926 -7.900797 -16.699136 -2.663854 -0.861280 0.420942 -0.605656 -1.194738 0.065540 88.657991 0.787628 -3.892083 0.342655 0.734632 -4.393080 0.813407 0.796411 1.348984 1.922806 6.103743 2.825811 -89.850644 -0.912927 3.217171 1.124086 0.970174 -0.900582 0.242851 0.663460 6.736624 0.721222 -0.221000 4.334299 0.542239 4.768832 -4.517632 -2.555759 -0.008674 -0.240427 -0.056587 -9.507684 4.594095 -1.761744 6.508716 11.651194 -0.621026 5.181809 -8.984864 -2.195500 0.015832 0.441630 -0.148468
-2.053095 89.303341 8.953051 -49.412270 -6.042204 0.811209 1.285695 1.526955 -0.067161 0.751615 0.868979 0.017156 0.939587 1.086183 0.023228 0.751615 0.868979 0.017156 -7.959453 8.532458 -4.073317 -7.970782 -16.731408 -2.624114 -0.852889 0.419848 -0.621944 -1.230533 0.118478 88.765321 0.857437 -4.094457 0.330556 0.703498 -4.417151 0.835234 0.800902 1.299576 1.911481 6.163067 2.729504 -89.835835 -0.968924 3.188882 1.055393 0.941845 -0.927939 0.278376 0.696534 6.355714 0.627297 -0.274164 4.914099 0.578061 4.694907 -4.757409 -2.490439 -0.007062 -0.243606 -0.066368 -9.463103 4.700996 -1.814572 6.461202 11.197031 -0.655275 5.073138 -8.758603 -2.094468 0.017702 0.399101 -0.102651
-1.930316 89.297112 8.980324 -49.324444 -5.995704 0.814961 1.253866 1.534719 -0.085411 0.732452 0.869059 0.013801 0.915624 1.086291 0.018988 0.732452 0.869059 0.013801 -8.009299 8.500187 -4.051269 -8.036778 -16.766794 -2.587985 -0.847493 0.422390 -0.636109 -1.234990 0.156653 88.866095 0.913625 -4.288824 0.313997 0.684586 -4.443035 0.844665 0.805913 1.256990 1.906381 6.249466 2.649424 -89.820706 -1.082888 3.160590 0.935563 0.894686 -0.955982 0.312316 0.740803 5.939156 0.530622 -0.335064 5.564711 0.622858 4.629541 -5.021584 -2.424590 -0.002876 -0.249266 -0.079005 -9.410063 4.792295 -1.862969 6.407541 10.780417 -0.690784 4.975938 -8.547502 -2.002350 0.020403 0.372187 -0.060836
-1.802039 89.288641 9.001770 -49.242883 -5.964997 0.817428 1.221599 1.549943 -0.105829 0.712758 0.873812 0.011911 0.891002 1.092237 0.016588 0.712758 0.873813 0.011911 -8.053217 8.463406 -4.031866 -8.095525 -16.807183 -2.556236 -0.846439 0.428136 -0.649359 -1.207575 0.177660 88.959341 0.957512 -4.465759 0.295157 0.673096 -4.463501 0.846705 0.809029 1.220929 1.908351 6.350981 2.583360 -89.803361 -1.248719 3.132281 0.771311 0.832971 -0.991306 0.343598 0.792006 5.498917 0.432304 -0.404410 6.282800 0.672806 4.574795 -5.308269 -2.360086 0.004004 -0.258906 -0.091388 -9.380804 4.876070 -1.917029 6.351486 10.399719 -0.726177 4.923338 -8.350450 -1.917140 0.022565 0.359148 -0.025486
-1.667205 89.277716 9.018965 -49.168288 -5.954525 0.833333 1.188349 1.574829 -0.143600 0.691825 0.885520 0.011871 0.864836 1.106872 0.016511 0.691825 0.885520 0.011871 -8.090733 8.419353 -4.015489 -8.146532 -16.855631 -2.529446 -0.847897 0.431786 -0.662040 -1.155081 0.181409 89.043077 0.992148 -4.615539 0.272439 0.665461 -4.477296 0.846606 0.808634 1.187573 1.911832 6.457964 2.528522 -89.780660 -1.458238 3.107131 0.572083 0.757761 -1.037416 0.373165 0.850824 5.047120 0.318571 -0.475776 7.047383 0.726217 4.517463 -5.577301 -2.294068 0.013397 -0.299463 -0.103111 -9.394978 4.952880 -1.995688 6.304450 10.058197 -0.760037 4.911993 -8.184661 -1.823988 0.023214 0.371628 -0.006161
-1.529594 89.264000 9.027481 -49.099680 -5.965513 0.829803 1.152105 1.610682 -0.165946 0.670099 0.904694 0.013872 0.837684 1.130837 0.018994 0.670099 0.904694 0.013872 -8.121034 8.366942 -4.001716 -8.188996 -16.913347 -2.507341 -0.848120 0.430157 -0.673582 -1.087430 0.167922 89.114325 1.018805 -4.732125 0.247303 0.658890 -4.488879 0.845833 0.805733 1.152739 1.914427 6.557252 2.484818 -89.748650 -1.704303 3.079514 0.341280 0.671891 -1.082772 0.403451 0.915268 4.593515 0.222294 -0.546913 7.851651 0.790494 4.460721 -5.881287 -2.232830 0.024114 -0.319253 -0.115614 -9.444476 5.030309 -2.063521 6.282868 9.751468 -0.785092 4.920473 -8.027594 -1.724746 0.020364 0.388888 -0.002805
-1.387396 89.247423 9.029036 -49.039422 -5.995347 0.823045 1.114575 1.657186 -0.186929 0.648096 0.930615 0.017265 0.810191 1.163233 0.023227 0.648096 0.930615 0.017265 -8.143728 8.305875 -3.989330 -8.222744 -16.980666 -2.488637 -0.847916 0.423382 -0.686432 -1.010704 0.137777 89.176951 1.039891 -4.816026 0.222355 0.649968 -4.497674 0.845246 0.799924 1.113598 1.915579 6.636774 2.452810 -89.707150 -1.980049 3.046819 0.085579 0.583011 -1.120827 0.434749 0.975920 4.145286 0.119500 -0.611655 8.670338 0.873267 4.414431 -6.181367 -2.174732 0.033878 -0.340289 -0.130427 -9.505379 5.103070 -2.133884 6.285063 9.482338 -0.802033 4.930068 -7.887042 -1.621767 0.016112 0.414595 -0.007441
-1.240335 89.228207 9.024078 -48.978311 -6.040413 0.816147 1.072465 1.712985 -0.207198 0.623492 0.962036 0.020963 0.779447 1.202505 0.027841 0.623492 0.962036 0.020963 -8.158892 8.237132 -3.977969 -8.247876 -17.056519 -2.472903 -0.846473 0.413639 -0.703779 -0.931219 0.091378 89.236539 1.058086 -4.871090 0.198270 0.637803 -4.504849 0.846227 0.791990 1.071452 1.914194 6.692712 2.430586 -89.657098 -2.279023 3.014914 -0.183926 0.494089 -1.154050 0.461693 1.016632 3.705582 0.002957 -0.649364 9.491594 0.978247 4.372911 -6.474473 -2.117778 0.041901 -0.360290 -0.148264 -9.566798 5.169544 -2.202472 6.298983 9.246209 -0.821643 4.930005 -7.759054 -1.510870 0.011611 0.446050 -0.016705
-1.088211 89.206877 9.012805 -48.910086 -6.093230 0.811481 1.023267 1.774027 -0.225972 0.594047 0.996635 0.023786 0.742652 1.245751 0.031349 0.594048 0.996636 0.023786 -8.165766 8.163892 -3.967384 -8.263332 -17.137403 -2.460008 -0.839631 0.402792 -0.724281 -0.856217 0.032521 89.290108 1.075953 -4.900225 0.178799 0.624320 -4.513040 0.849252 0.784363 1.029374 1.909467 6.727508 2.417141 -89.595263 -2.594328 2.986908 -0.460994 0.406839 -1.182480 0.478918 1.036395 3.271302 -0.126505 -0.655441 10.307523 1.101080 4.323866 -6.758108 -2.057570 0.048162 -0.378548 -0.169348 -9.626619 5.225918 -2.265375 6.315160 9.035403 -0.850976 4.910691 -7.639138 -1.387644 0.007944 0.481365 -0.030551
-0.931405 89.184269 8.995500 -48.832563 -6.146695 0.810651 0.967262 1.837002 -0.242192 0.559923 1.032145 0.024718 0.700002 1.290139 0.032475 0.559923 1.032145 0.024718 -8.167529 8.089151 -3.956651 -8.272896 -17.220007 -2.448135 -0.830826 0.392410 -0.742990 -0.790310 -0.034903 89.334128 1.097748 -4.908181 0.167843 0.614225 -4.516634 0.853650 0.776582 0.987673 1.900642 6.745295 2.410294 -89.520740 -2.916941 2.968717 -0.740741 0.325377 -1.205938 0.490505 1.034822 2.843719 -0.269400 -0.642481 11.102536 1.237447 4.278441 -7.025918 -1.989637 0.052588 -0.393365 -0.194967 -9.693784 5.269680 -2.323937 6.325983 8.839654 -0.891739 4.884696 -7.521577 -1.254323 0.006150 0.518561 -0.046498
-0.769179 89.161479 8.974797 -48.747101 -6.196549 0.831297 0.907001 1.901803 -0.272593 0.522529 1.067199 0.023537 0.653258 1.333962 0.030944 0.522529 1.067200 0.023537 -8.169526 8.013935 -3.945078 -8.283009 -17.303199 -2.435238 -0.825491 0.383199 -0.757067 -0.737205 -0.109692 89.370291 1.126508 -4.898521 0.163661 0.613769 -4.517386 0.856959 0.763935 0.943955 1.887829 6.749193 2.406758 -89.438046 -3.237441 2.965929 -1.014985 0.255556 -1.226728 0.498997 1.004045 2.430946 -0.445161 -0.612449 11.851722 1.384615 4.246566 -7.253587 -1.908512 0.056373 -0.415533 -0.225909 -9.784161 5.296096 -2.400727 6.326380 8.657127 -0.945072 4.880031 -7.432672 -1.113747 0.008555 0.580988 -0.060698
-0.606259 89.139406 8.945981 -48.656345 -6.233827 0.837048 0.842063 1.962764 -0.284069 0.483944 1.100033 0.021308 0.605022 1.375010 0.028088 0.483944 1.100033 0.021308 -8.173295 7.939237 -3.933013 -8.295356 -17.385888 -2.421345 -0.821175 0.376484 -0.767506 -0.701628 -0.192357 89.401178 1.162003 -4.872890 0.165468 0.626533 -4.523624 0.856170 0.744714 0.898497 1.870106 6.743080 2.402163 -89.348345 -3.545851 2.986122 -1.276897 0.200240 -1.250072 0.502349 0.942386 2.023991 -0.607986 -0.564591 12.559398 1.535353 4.227729 -7.475228 -1.813398 0.057805 -0.415786 -0.264263 -9.899987 5.310714 -2.457291 6.308668 8.463864 -1.006621 4.914080 -7.307896 -0.973608 0.010933 0.619621 -0.073464
-0.442652 89.119014 8.910743 -48.571684 -6.254221 0.839913 0.778047 2.017996 -0.292490 0.446229 1.129678 0.019356 0.557873 1.412071 0.025571 0.446230 1.129678 0.019356 -8.179184 7.866203 -3.921093 -8.310128 -17.466807 -2.407082 -0.814108 0.372494 -0.774287 -0.685153 -0.281069 89.428578 1.206147 -4.841022 0.174785 0.653926 -4.536499 0.847865 0.722214 0.849950 1.846790 6.722086 2.388860 -89.250770 -3.830262 3.024115 -1.521056 0.155254 -1.272886 0.497973 0.863955 1.623476 -0.764692 -0.501504 13.213006 1.679650 4.222567 -7.668855 -1.695034 0.056795 -0.408854 -0.310871 -10.028752 5.307555 -2.505420 6.278827 8.267453 -1.071813 4.977060 -7.176492 -0.837046 0.012201 0.655871 -0.083733
-0.280537 89.101097 8.869488 -48.501096 -6.259334 0.836766 0.721299 2.067315 -0.296547 0.412391 1.156771 0.018536 0.515574 1.445941 0.024473 0.412391 1.156771 0.018536 -8.191548 7.796824 -3.910523 -8.332099 -17.543771 -2.392778 -0.813612 0.369625 -0.776524 -0.681082 -0.371708 89.453476 1.260915 -4.818778 0.190147 0.697906 -4.548792 0.830677 0.694841 0.795392 1.817501 6.680346 2.361714 -89.145635 -4.081931 3.069226 -1.742997 0.118194 -1.288137 0.484715 0.789202 1.232043 -0.907722 -0.422462 13.812360 1.814448 4.227298 -7.836363 -1.551333 0.053490 -0.394433 -0.364688 -10.155859 5.291342 -2.540860 6.267613 8.068626 -1.134125 5.033515 -7.039042 -0.706795 0.011329 0.688313 -0.091190
-0.121754 89.086209 8.823219 -48.451260 -6.252753 0.827383 0.675680 2.110463 -0.296239 0.384480 1.181336 0.019289 0.480688 1.476648 0.025352 0.384481 1.181336 0.019289 -8.211783 7.734977 -3.902780 -8.362326 -17.612480 -2.379752 -0.822681 0.370224 -0.775109 -0.683540 -0.462552 89.479026 1.322656 -4.815421 0.208249 0.758703 -4.558470 0.805476 0.663863 0.737890 1.781235 6.618548 2.318876 -89.033529 -4.298138 3.118852 -1.938366 0.094807 -1.296428 0.465535 0.744942 0.846759 -1.030834 -0.327561 14.374154 1.938850 4.225780 -7.988550 -1.384994 0.048988 -0.373662 -0.422375 -10.260169 5.271181 -2.562684 6.290688 7.862575 -1.189771 5.057473 -6.893705 -0.585146 0.009147 0.715969 -0.094557
0.032565 89.074629 8.773392 -48.426338 -6.237671 0.814496 0.640741 2.148051 -0.293923 0.362282 1.203092 0.021338 0.452948 1.503843 0.027863 0.362283 1.203093 0.021338 -8.235450 7.683804 -3.898120 -8.395234 -17.669416 -2.369316 -0.830072 0.375598 -0.771473 -0.691725 -0.549050 89.512546 1.391243 -4.835487 0.225262 0.830617 -4.570705 0.772213 0.636415 0.681750 1.739569 6.533232 2.257395 -88.917332 -4.475111 3.160833 -2.103460 0.085039 -1.295697 0.445231 0.758025 0.462937 -1.133983 -0.221299 14.919625 2.056683 4.209233 -8.141427 -1.205711 0.044429 -0.346703 -0.477976 -10.321363 5.256581 -2.573173 6.325818 7.640200 -1.240930 5.057417 -6.736456 -0.472606 0.007114 0.738155 -0.093165
0.176642 89.066936 8.723177 -48.401753 -6.246159 0.784991 0.594141 2.208210 -0.275781 0.345033 1.222604 0.023578 0.431394 1.528232 0.030625 0.345033 1.222605 0.023578 -8.260677 7.645218 -3.896762 -8.428393 -17.712424 -2.362152 -0.834296 0.385290 -0.768334 -0.702136 -0.628187 89.560371 1.465284 -4.883787 0.240160 0.910116 -4.585289 0.730624 0.614914 0.628313 1.696203 6.429480 2.176429 -88.801676 -4.608787 3.195570 -2.235236 0.082188 -1.287519 0.424637 0.815863 0.092083 -1.190232 -0.103464 15.512978 2.186847 4.116544 -8.331585 -1.079288 0.111127 -0.323957 -0.494655 -10.356794 5.286538 -2.564931 6.354637 7.396071 -1.290384 5.036883 -6.569518 -0.369331 0.004415 0.758056 -0.088613
